<svg xmlns="http://www.w3.org/2000/svg" xmlns:xlink="http://www.w3.org/1999/xlink" version="1.1" x="0px" y="0px" viewBox="0 0 48 60" enable-background="new 0 0 48 48" xml:space="preserve"><g><g><path d="M19.938,25.224c-0.119,0-0.239-0.021-0.356-0.066L0.644,17.929c-0.516-0.197-0.775-0.775-0.578-1.291    c0.196-0.517,0.776-0.776,1.291-0.578l18.938,7.228c0.516,0.197,0.775,0.775,0.578,1.291C20.72,24.979,20.34,25.224,19.938,25.224    z"/><path d="M29.416,24.236c-0.119,0-0.239-0.021-0.356-0.066l-4.213-1.609c-0.516-0.197-0.775-0.775-0.578-1.291    c0.197-0.516,0.779-0.772,1.291-0.577l4.213,1.609c0.517,0.197,0.774,0.775,0.578,1.291    C30.198,23.991,29.818,24.236,29.416,24.236z"/><path d="M19.961,28.275c-0.407,0-0.79-0.25-0.938-0.655c-0.439-1.193-0.449-2.517-0.028-3.726c0.48-1.377,1.451-2.465,2.733-3.062    c1.22-0.568,2.583-0.618,3.833-0.14c0.516,0.197,0.774,0.774,0.578,1.291c-0.197,0.518-0.776,0.775-1.291,0.578    c-0.742-0.282-1.55-0.252-2.276,0.085c-0.789,0.367-1.388,1.044-1.688,1.906c-0.269,0.773-0.263,1.618,0.016,2.379    c0.19,0.519-0.075,1.093-0.594,1.283C20.192,28.256,20.076,28.275,19.961,28.275z"/><path d="M31.769,28.786c-0.046,0-0.092-0.003-0.138-0.01c-0.548-0.075-0.93-0.58-0.854-1.127c0.215-1.555-0.63-3.064-2.01-3.591    c-0.516-0.197-0.774-0.775-0.578-1.291c0.197-0.517,0.778-0.774,1.291-0.578c2.241,0.855,3.619,3.266,3.277,5.733    C32.688,28.424,32.26,28.786,31.769,28.786z"/></g><path d="M27.534,28.891c-2.614,0-5.156-0.116-7.555-0.345c-4.822-0.458-12.912-1.73-12.912-5.107c0-4.31,13.387-5.449,20.466-5.449   S48,19.129,48,23.439C48,27.751,34.613,28.891,27.534,28.891z M27.534,19.99c-12.184,0-18.466,2.417-18.466,3.449   c0,0.528,2.733,2.321,11.101,3.117c2.336,0.222,4.814,0.335,7.365,0.335C39.718,26.891,46,24.471,46,23.439   C46,22.408,39.718,19.99,27.534,19.99z"/><path d="M27.534,44.691c-11.285,0-20.466-9.534-20.466-21.252c0-0.552,0.448-1,1-1s1,0.448,1,1   c0,10.616,8.284,19.252,18.466,19.252C37.716,42.691,46,34.055,46,23.439c0-0.552,0.447-1,1-1s1,0.448,1,1   C48,35.157,38.819,44.691,27.534,44.691z"/><path d="M36.586,24.863c-0.271,0-0.535-0.028-0.781-0.093c-0.688-0.179-1.175-0.628-1.566-0.989   c-0.128-0.118-0.254-0.237-0.387-0.337c-0.386-0.292-0.844-0.385-1.402-0.281c-0.606,0.112-1.521,0.536-1.709,0.751   c-0.363,0.416-0.997,0.456-1.411,0.093c-0.415-0.364-0.457-0.996-0.093-1.411c0.684-0.78,2.242-1.287,2.848-1.399   c1.106-0.207,2.136,0.02,2.975,0.653c0.184,0.14,0.359,0.299,0.535,0.461c0.263,0.242,0.511,0.471,0.716,0.524   c0.33,0.085,1.012-0.028,1.438-0.238c0.15-0.073,0.323-0.215,0.506-0.365c0.351-0.288,0.787-0.646,1.387-0.792   c0.593-0.147,1.365-0.262,2.062-0.306c0.529-0.035,1.009,0.029,1.433,0.085c0.174,0.023,0.348,0.046,0.522,0.061   c-0.01-0.009,0.029-0.047,0.071-0.083c0.227-0.187,0.606-0.499,1.228-0.559c0.541-0.05,1.038,0.35,1.091,0.9   c0.053,0.55-0.35,1.038-0.899,1.091c-0.024,0.01-0.096,0.069-0.148,0.112c-0.252,0.208-0.713,0.603-1.507,0.531   c-0.208-0.018-0.412-0.044-0.617-0.071c-0.366-0.048-0.713-0.095-1.048-0.072c-0.574,0.036-1.229,0.132-1.71,0.252   c-0.16,0.039-0.371,0.212-0.595,0.395c-0.251,0.206-0.535,0.439-0.892,0.614C38.107,24.649,37.328,24.863,36.586,24.863z"/><g><path d="M32.398,14.387c-0.553,0-1-0.448-1-1V7.724c0-0.552,0.447-1,1-1s1,0.448,1,1v5.663    C33.398,13.939,32.951,14.387,32.398,14.387z"/><path d="M27.534,14.387c-0.553,0-1-0.448-1-1V4.309c0-0.552,0.447-1,1-1s1,0.448,1,1v9.078    C28.534,13.939,28.087,14.387,27.534,14.387z"/><path d="M22.668,14.387c-0.552,0-1-0.448-1-1V7.724c0-0.552,0.448-1,1-1s1,0.448,1,1v5.663    C23.668,13.939,23.22,14.387,22.668,14.387z"/></g></g><text x="0" y="63" fill="#000000" font-size="5px" font-weight="bold" font-family="'Helvetica Neue', Helvetica, Arial-Unicode, Arial, Sans-serif">Created by Creative Stall</text><text x="0" y="68" fill="#000000" font-size="5px" font-weight="bold" font-family="'Helvetica Neue', Helvetica, Arial-Unicode, Arial, Sans-serif">from the Noun Project</text></svg>