<svg xmlns="http://www.w3.org/2000/svg" xmlns:xlink="http://www.w3.org/1999/xlink" version="1.1" x="0px" y="0px" viewBox="0 0 100.006 125" enable-background="new 0 0 100.006 100" xml:space="preserve"><g><path fill="#000000" d="M20.626,84.591c-0.889,0-1.668-0.647-1.807-1.553c-0.154-0.999,0.532-1.935,1.531-2.086l16.961-2.606   c1.001-0.156,1.934,0.53,2.087,1.531c0.154,0.998-0.532,1.932-1.53,2.086l-16.962,2.605C20.812,84.583,20.718,84.591,20.626,84.591   z"/></g><g><path fill="#000000" d="M20.626,89.676c-0.889,0-1.668-0.646-1.807-1.553c-0.154-0.999,0.532-1.934,1.531-2.086l16.961-2.605   c1.001-0.156,1.934,0.529,2.087,1.53c0.154,0.999-0.532,1.935-1.53,2.087l-16.962,2.605C20.812,89.668,20.718,89.676,20.626,89.676   z"/></g><path fill="#000000" d="M20.417,75.893c-0.021,0.002-0.039,0.012-0.058,0.016c-0.967,0.181-1.624,1.093-1.473,2.072  c0.139,0.904,0.918,1.552,1.807,1.552c0.043,0,0.087-0.007,0.131-0.011l7.083-1.088l1.392-0.215c0.998-0.152,1.685-1.087,1.53-2.086  c-0.02-0.131-0.056-0.254-0.101-0.373h-9.45L20.417,75.893z"/><g><path fill="#000000" d="M29.109,97.077c-3.001,0-5.677-1.908-6.659-4.748c-0.361-1.044,0.193-2.183,1.237-2.544   c1.042-0.358,2.182,0.191,2.543,1.236c0.425,1.229,1.582,2.056,2.878,2.056s2.454-0.825,2.878-2.056   c0.36-1.043,1.498-1.596,2.544-1.236c1.044,0.361,1.598,1.5,1.237,2.544C34.786,95.169,32.111,97.077,29.109,97.077z"/></g><path fill="#000000" d="M56.843,29.222l-0.02-0.431c-0.372-7.358-3.37-13.444-9.165-18.606c-2.059-1.833-4.528-3.34-7.279-4.454  c-3.352-1.484-6.92-2.276-10.608-2.357c-0.064-0.008-0.13-0.012-0.196-0.013C29.564,3.36,29.459,3.36,29.447,3.36l-0.172,0.003  c-0.028-0.002-0.091-0.003-0.119-0.003l-0.068,0.003L28.766,3.36c-0.01,0-0.105,0-0.115,0c-0.078,0.001-0.155,0.007-0.231,0.017  c-3.249,0.085-6.417,0.726-9.364,1.887c-3.291,1.177-6.149,2.833-8.494,4.921C4.796,15.32,1.798,21.403,1.397,28.783  c-0.212,3.894-0.606,11.142,4.908,19.418c1.727,2.592,4.944,8.227,5.438,9.665c0.083,0.239,0.179,0.504,0.283,0.788  c0.516,1.412,1.223,3.346,1.205,5.441c-0.015,1.651-0.039,4.418,2.517,7.233c0.087,0.098,0.256,0.241,0.377,0.332  c1.531,1.307,3.914,3.021,7.03,3.021h11.908c3.131,0,5.503-1.709,7.03-3.02c0.119-0.087,0.28-0.225,0.37-0.323  c2.565-2.805,2.54-5.571,2.524-7.298c-0.018-2.039,0.688-3.973,1.205-5.382c0.104-0.287,0.201-0.554,0.284-0.794  c0.495-1.439,3.711-7.074,5.438-9.665c4.416-6.627,4.989-12.499,4.998-16.92l0.003-0.159C56.915,30.482,56.88,29.852,56.843,29.222z   M23.524,45.409c0.394,0.017,0.802,0.02,1.225,0.009c1.617-0.044,3.097-0.459,4.359-1.196c1.262,0.736,2.743,1.151,4.359,1.196  c0.42,0.011,0.83,0.008,1.225-0.009c-1.122,9.92-2.04,24.427-2.088,25.198l1.185,0.074h-9.363l1.185-0.074  C25.564,69.836,24.646,55.329,23.524,45.409z M28.295,36.042c0.127-0.199,0.288-0.332,0.636-0.332c0.027,0,0.056,0.001,0.086,0.002  l0.098,0.005l0.084-0.005c0.407-0.02,0.584,0.115,0.722,0.33c0.403,0.629,0.427,2.061-0.322,3.477  c-0.121,0.229-0.282,0.494-0.491,0.768c-0.209-0.273-0.371-0.538-0.492-0.768C27.868,38.103,27.892,36.671,28.295,36.042z   M52.911,31.32c-0.008,4.051-0.525,8.96-4.325,14.664c-1.554,2.331-5.193,8.543-5.893,10.583c-0.075,0.22-0.163,0.459-0.258,0.72  c-0.586,1.603-1.471,4.024-1.447,6.864c0.012,1.363,0.025,2.773-1.365,4.365c-0.033,0.024-0.066,0.051-0.097,0.078  c-1.458,1.258-2.689,1.907-3.917,2.055c0.101-1.575,1.055-16.266,2.159-25.708c2.87-0.799,4.596-2.465,5.319-4.08  c0.846-1.888,0.512-3.904-0.893-5.393c-1.316-1.396-2.616-1.285-3.272-1.093c-2.116,0.615-3.11,3.441-3.292,4.382  c-0.191,0.987-0.381,2.221-0.567,3.624c-0.47,0.04-0.975,0.055-1.512,0.039c-0.776-0.021-1.444-0.155-2.017-0.361  c0.265-0.354,0.505-0.733,0.719-1.137c1.198-2.265,1.275-4.815,0.195-6.499c-0.733-1.143-1.95-1.759-3.338-1.709  c-1.403-0.05-2.606,0.566-3.339,1.709c-1.08,1.683-1.003,4.234,0.195,6.499c0.213,0.403,0.454,0.783,0.719,1.137  c-0.573,0.206-1.24,0.34-2.017,0.361c-0.537,0.016-1.041,0.001-1.512-0.039c-0.187-1.403-0.376-2.637-0.567-3.624  c-0.182-0.941-1.176-3.768-3.292-4.382c-0.658-0.192-1.956-0.303-3.272,1.093c-1.405,1.489-1.739,3.505-0.893,5.393  c0.723,1.615,2.448,3.281,5.319,4.08c1.104,9.441,2.058,24.128,2.159,25.707c-1.219-0.148-2.454-0.8-3.926-2.062  c-0.027-0.023-0.055-0.046-0.083-0.066c-1.395-1.61-1.382-3.023-1.37-4.444c0.024-2.769-0.863-5.192-1.449-6.796  c-0.094-0.258-0.181-0.497-0.256-0.715c-0.7-2.037-4.338-8.25-5.892-10.583C5.225,39.367,5.132,33.748,5.39,29  c0.341-6.261,2.902-11.438,7.831-15.827c1.96-1.746,4.375-3.139,7.239-4.164c2.628-1.034,5.405-1.585,8.254-1.637  c0.064-0.001,0.126-0.005,0.188-0.012h0.201c0.038,0.001,0.114,0.003,0.153,0.002h0.097c0.052,0.005,0.103,0.008,0.157,0.009  c3.218,0.047,6.33,0.726,9.308,2.043c2.384,0.966,4.463,2.231,6.18,3.759c4.953,4.412,7.515,9.587,7.831,15.826l0.021,0.457  c0.031,0.552,0.064,1.105,0.063,1.708L52.911,31.32z M38.2,41.596c0.125-0.857,0.25-1.623,0.375-2.271  c0.144-0.746,0.831-1.946,1.1-2.068c0.001,0,0.118,0.038,0.336,0.269c0.561,0.594,0.681,1.343,0.338,2.108  C40.042,40.319,39.341,41.053,38.2,41.596z M20.018,41.596c-1.142-0.543-1.842-1.276-2.149-1.961  c-0.343-0.765-0.223-1.514,0.338-2.108c0.163-0.172,0.269-0.237,0.277-0.26c0.361,0.172,1.018,1.332,1.159,2.06  C19.768,39.974,19.893,40.738,20.018,41.596z"/><text x="0" y="115" fill="#000000" font-size="5px" font-weight="bold" font-family="'Helvetica Neue', Helvetica, Arial-Unicode, Arial, Sans-serif">Created by Ema Dimitrova</text><text x="0" y="120" fill="#000000" font-size="5px" font-weight="bold" font-family="'Helvetica Neue', Helvetica, Arial-Unicode, Arial, Sans-serif">from the Noun Project</text></svg>