<svg xmlns="http://www.w3.org/2000/svg" xmlns:xlink="http://www.w3.org/1999/xlink" xml:space="preserve" version="1.1" style="shape-rendering:geometricPrecision;text-rendering:geometricPrecision;image-rendering:optimizeQuality;" viewBox="0 0 10000000 12500000" x="0px" y="0px" fill-rule="evenodd" clip-rule="evenodd"><defs><style type="text/css">
   
    .str0 {stroke:white;stroke-width:7620}
    .fil0 {fill:black}
   
  </style></defs><g><path class="fil0" d="M6500000 5950090c194170,129450 1975390,1316930 3000000,2000000l-2750010 0 -816670 -1400000 -1866640 0 -816680 1400000 -2750000 0 1845710 -1230480 476110 144420c6280,1900 12580,3510 18890,4880l-140 2840c-990,20080 -1880,40160 -2660,60260l-6070 155170 530900 -389180 390 -37570c940,-91480 9430,-184000 24040,-275530 33520,-39470 54470,-90000 56290,-145420 840,-25710 -2500,-50650 -9410,-74140 3030,-11360 6140,-22690 9330,-33960 17230,-60870 37120,-121530 59710,-181290l2996910 0z"/><path class="fil0" d="M4091810 5496900l476710 -476710c62000,-76920 156860,-126440 262730,-126440l337490 0c106130,0 201200,49660 263190,126870l321310 321310 229080 -396810c46400,-80330 150120,-108170 230490,-61750l0 0c80400,46420 108190,150160 61780,230530l-337490 584580c-7250,12560 -15900,23830 -25650,33740l-210 220 -3030 3110 0 0c-65680,65640 -173040,65610 -238680,0l-163290 -163290 0 327830 -1326000 0 -112980 -195700 -280 -490c-39330,-64900 -31060,-151110 24830,-207000zm401940 75390l-71670 71670 71670 124150 0 -195820z"/><path class="fil0" d="M4999990 4049910c-186410,0 -337490,169970 -337490,379700 0,209700 151080,379690 337490,379690 186390,0 337500,-169990 337500,-379690 0,-209730 -151110,-379700 -337500,-379700z"/><path class="fil0" d="M8159330 4634990c-204040,-35510 -401830,121750 -441780,351330 -39950,229540 93060,444410 297100,479930 204050,35510 401840,-121790 441790,-351330 39960,-229570 -93060,-444410 -297110,-479930z"/><path class="fil0 str0" d="M1621410 4670970c200050,-53610 411100,85360 471410,310440 60300,225050 -52980,450950 -253030,504560 -200060,53600 -411110,-85400 -471410,-310440 -60320,-225090 52970,-450960 253030,-504560z"/><path class="fil0" d="M8193800 5570900c-205850,12570 -388320,135750 -406260,340860l-69160 790490 711370 474250 74510 -851660c18960,-216650 24980,-252790 90070,-357470l338830 -544860c23780,-29910 38630,-67250 40420,-108030l100 -2030 10 -600 140 -4200 24380 -744810c3390,-103070 -78180,-190170 -181280,-193540l0 0c-103060,-3400 -190120,78200 -193510,181220l-22800 696560c-117350,188720 -258790,314780 -406820,323820z"/><path class="fil0" d="M2515710 6021540l-408530 -254050c22780,40370 39270,85090 47850,133120l33030 184940 117580 125540 630220 191170 23880 7240 220 70c8190,2490 16160,5400 23870,8690 5280,-35450 11060,-70660 17380,-105480 29680,-163540 71250,-318610 128670,-449810l395410 -202440c-74150,137420 -134250,288990 -178060,443750 -51530,182010 -80650,368840 -83720,542620 -108490,79530 -216090,158410 -323590,237200l760 -15330c-16350,3570 -33160,5420 -50170,5440 -990,20060 -1870,39990 -2640,59750l-2020 51640 41670 -30540 375460 -275230 10020 -7350 130 -12570c1000,-95850 10290,-196130 27190,-297610 31520,-32350 51590,-76020 53170,-124460l0 0c820,-24900 -3320,-48870 -11540,-70960 4260,-16400 8690,-32780 13320,-49120 50580,-178650 123210,-352750 214310,-504610l44780 -74630 -77500 39670 -477540 244490 -7850 4030 -3570 7980c-28060,62910 -52470,131170 -73670,203160l-498520 -16310z"/><path class="fil0" d="M1670720 5606220c203040,-36270 398880,100480 435090,303180l35640 199520 136860 146130 666920 202300c98630,29940 154920,135150 124970,233820l0 0c-29940,98710 -135190,154960 -233870,125010l-601130 -182350 15860 88790 -680810 453870 -202760 -1135220c-36270,-203040 100190,-398790 303230,-435050z"/></g><text x="0" y="10000015" fill="#000000" font-size="5px" font-weight="bold" font-family="'Helvetica Neue', Helvetica, Arial-Unicode, Arial, Sans-serif">Created by Krisada</text><text x="0" y="10000020" fill="#000000" font-size="5px" font-weight="bold" font-family="'Helvetica Neue', Helvetica, Arial-Unicode, Arial, Sans-serif">from the Noun Project</text></svg>