<svg xmlns="http://www.w3.org/2000/svg" xmlns:xlink="http://www.w3.org/1999/xlink" version="1.1" x="0px" y="0px" viewBox="0 0 96 120" enable-background="new 0 0 96 96" xml:space="preserve"><g><rect x="45" y="88" fill="#000000" width="4" height="6"/></g><g><path fill="#000000" d="M49,64.119V54.8c0-3.701,2.029-7.082,5.294-8.823L68,38.667v9.482c0,3.74-2.06,7.138-5.376,8.867L49,64.119   z M64,45.333l-7.823,4.172C54.217,50.551,53,52.579,53,54.8v2.723l7.774-4.053c1.99-1.038,3.226-3.076,3.226-5.32V45.333z"/></g><g><path fill="#000000" d="M45,64.119l-13.624-7.103C28.06,55.287,26,51.889,26,48.149v-9.482l13.706,7.31   C42.971,47.718,45,51.099,45,54.8V64.119z M30,45.333v2.815c0,2.244,1.236,4.283,3.226,5.32L41,57.522V54.8   c0-2.221-1.217-4.249-3.176-5.294L30,45.333z"/></g><g><path fill="#000000" d="M49,84.119V74.8c0-3.701,2.029-7.082,5.294-8.823L68,58.667v9.482c0,3.74-2.06,7.138-5.376,8.867L49,84.119   z M64,65.333l-7.823,4.172C54.217,70.551,53,72.579,53,74.8v2.723l7.774-4.053c1.99-1.038,3.226-3.076,3.226-5.32V65.333z"/></g><g><path fill="#000000" d="M45,84.119l-13.624-7.103C28.06,75.287,26,71.889,26,68.149v-9.482l13.706,7.31   C42.971,67.718,45,71.099,45,74.8V84.119z M30,65.333v2.815c0,2.244,1.236,4.283,3.226,5.32L41,77.522V74.8   c0-2.221-1.217-4.249-3.176-5.294L30,65.333z"/></g><g><path fill="#000000" d="M49,45.119V35.8c0-3.701,2.029-7.082,5.294-8.823L68,19.667v9.482c0,3.74-2.06,7.138-5.376,8.867L49,45.119   z M64,26.333l-7.823,4.172C54.217,31.551,53,33.579,53,35.8v2.723l7.774-4.053c1.99-1.038,3.226-3.076,3.226-5.32V26.333z"/></g><g><path fill="#000000" d="M45,45.119l-13.624-7.103C28.06,36.287,26,32.889,26,29.149v-9.482l13.706,7.31   C42.971,28.718,45,32.099,45,35.8V45.119z M30,26.333v2.815c0,2.244,1.236,4.283,3.226,5.32L41,38.522V35.8   c0-2.221-1.217-4.249-3.176-5.294L30,26.333z"/></g><g><path fill="#000000" d="M47,28.725l-5.82-9.145c-2.177-3.423-2.081-7.781,0.245-11.104L47,0.512l5.575,7.965   c2.326,3.322,2.422,7.681,0.245,11.104L47,28.725z M47,7.488l-2.298,3.283c-1.396,1.994-1.454,4.609-0.147,6.662L47,21.275   l2.445-3.842c1.307-2.053,1.249-4.668-0.146-6.662L47,7.488z"/></g><text x="0" y="111" fill="#000000" font-size="5px" font-weight="bold" font-family="'Helvetica Neue', Helvetica, Arial-Unicode, Arial, Sans-serif">Created by lionlionleo</text><text x="0" y="116" fill="#000000" font-size="5px" font-weight="bold" font-family="'Helvetica Neue', Helvetica, Arial-Unicode, Arial, Sans-serif">from the Noun Project</text></svg>