<svg xmlns="http://www.w3.org/2000/svg" xmlns:xlink="http://www.w3.org/1999/xlink" xmlns:a="http://ns.adobe.com/AdobeSVGViewerExtensions/3.0/" version="1.1" x="0px" y="0px" viewBox="26.081 31.5 100 125" enable-background="new 26.081 31.5 100 100" xml:space="preserve"><path display="none" d="M20.665,35.153v1.139h-2.79l13.435,36.206h3.729L23.426,32.364c0.655-0.996,0.968-2.078,0.968-3.302  c0-1.793-0.711-3.359-2.135-4.64L7.486,28.35l-1.765,4.583l2.704,39.565h3.501l0.513-31.538l3.643-5.807H20.665L20.665,35.153z"/><path display="none" d="M72.242,2.79h-5.095l-9.763,14.403l-6.519,13.293l-3.473,1.594l5.522,34.584h3.957l-1.736-30.201  l11.158,0.085v1.338l-3.9-0.057l14.175,34.812h3.956l-11.47-36.235c0.341-0.199,0.683-0.456,0.996-0.74  c1.423-1.281,2.135-2.79,2.135-4.583c0-1.793-0.712-3.331-2.135-4.583c-0.37-0.341-0.797-0.626-1.224-0.854l-7.372-0.086  l-5.209,2.42l4.839-6.889v3.416l8.454,0.085V12.724L72.242,2.79L72.242,2.79z"/><path display="none" d="M107.366,0L98.97,12.467l-9.336,18.359l2.447,1.252l8.824-14.289c0.199,0.085,0.427,0.114,0.684,0.143v4.469  c-0.058,0.456-0.143,0.882-0.257,1.31c-0.085,0.313-0.199,0.626-0.341,0.939c-0.285,0.626-0.655,1.224-1.082,1.765  c-0.086,0.085-0.199,0.256-0.37,0.455l16.054-4.412V21.32h-1.68c-0.256-0.029-0.541-0.085-0.797-0.171  c-0.996-0.256-1.85-0.769-2.619-1.537c-0.455-0.427-0.824-0.911-1.109-1.423c-0.342-0.598-0.541-1.252-0.627-1.964L112.376,0  H107.366L107.366,0z"/><polygon display="none" points="105.487,42.782 99.511,42.782 101.503,72.071 105.004,72.071 105.487,42.782 "/><polygon display="none" points="119.635,42.782 113.515,42.782 124.388,72.071 128.116,72.071 119.635,42.782 "/><path display="none" d="M117.5,26.329c-0.483-1.622-1.253-2.476-2.249-2.619l-16.195,4.412v14.944h22.486l-3.245-13.691  C117.983,28.094,117.728,27.098,117.5,26.329L117.5,26.329z"/><path display="none" d="M32.648,78.846c-1.566-1.565-3.473-2.363-5.665-2.363s-4.099,0.797-5.664,2.363  c-1.224,1.224-1.993,2.676-2.249,4.326h7.088v8.027h-3.615c1.31,0.883,2.79,1.338,4.44,1.338c2.192,0,4.099-0.797,5.665-2.363  c1.565-1.564,2.362-3.443,2.362-5.635C35.011,82.318,34.214,80.411,32.648,78.846L32.648,78.846z"/><path display="none" d="M21.177,87.214c-2.306,0-4.298,0.825-5.949,2.477c-1.679,1.651-2.504,3.644-2.504,5.978  c0,2.306,0.825,4.298,2.504,5.949c1.651,1.65,3.644,2.477,5.949,2.477s4.298-0.826,5.949-2.477c1.679-1.651,2.505-3.644,2.505-5.949  c0-2.334-0.826-4.326-2.505-5.978C25.475,88.039,23.483,87.214,21.177,87.214L21.177,87.214z"/><path display="none" d="M28.464,110.953v-0.028l1.622-6.547h-4.839l-10.02,14.289v-0.028l-13.805-6.803L0,114.17l15.171,9.308  c0.996,0.598,1.765,0.54,2.334-0.228l0.484-1.11h0.797v4.981c-0.085,0.085-0.142,0.143-0.228,0.228  c-0.598,0.654-1.082,1.395-1.395,2.22c2.534,2.106,5.039,2.79,7.458,2.05s4.27-2.875,5.493-6.404  c0.427,0.171,0.911,0.313,1.423,0.455l5.152-7.998l-5.892-11.528l-1.224,5.038c-0.057,0.199-0.114,0.398-0.171,0.599l3.131,5.492  l-3.672,7.316c-1.423-0.883-2.334-2.107-2.733-3.672c-0.028-0.058-0.028-0.114-0.057-0.172L28.464,110.953L28.464,110.953z"/><path display="none" d="M32.506,127.32l-0.028,0.057l-6.604,9.308c0,0.028,0,0.058-0.029,0.085l9.45,17.733l5.665,21.462h4.27  l-10.816-40.248c0.569-1.053,0.854-2.248,0.854-3.586c0-1.708-0.484-3.217-1.452-4.498L32.506,127.32L32.506,127.32z"/><polygon display="none" points="91.996,90.203 88.723,90.203 88.723,111.238 87.413,108.591 85.933,115.365 97.688,135.232   100.165,134.01 91.996,117.756 91.996,90.203 "/><path display="none" d="M64.955,90.203c-0.057,0.199-0.085,0.427-0.085,0.654c0,1.31,0.968,2.42,2.875,3.359  c0.996,0.483,2.106,0.824,3.33,1.081c-0.598,1.024-0.911,2.163-0.911,3.444c0,2.021,0.769,3.729,2.306,5.123  c0.256,0.256,0.541,0.456,0.797,0.655c1.366,0.996,2.96,1.479,4.754,1.479c2.162,0,4.014-0.711,5.551-2.135  c0.654-0.598,1.195-1.28,1.564-1.992l2.448,3.302V90.203H64.955L64.955,90.203z"/><polygon display="none" points="70.306,114.313 70.306,116.902 72.213,118.667 79.017,108.42 70.306,114.313 "/><path display="none" d="M86.56,106.996h-5.266l-0.143,0.229c-0.029,0.057-0.057,0.113-0.086,0.17l-8.824,13.265l-8.34,16.965  l2.391,1.253l9.536-15.457v6.12c-1.11,1.253-1.936,2.903-2.505,4.953c-0.085,0.256-0.171,0.54-0.228,0.825v12.951l19.185-12.895  c-0.427-2.932-1.309-4.554-2.618-4.924c-0.997-0.199-2.306,0.028-3.872,0.74c-4.639,2.021-7.742,2.96-9.364,2.818  c-0.171-0.029-0.313-0.086-0.398-0.2c-0.114-0.114-0.171-0.256-0.143-0.398c0.028-0.171,0.085-0.313,0.199-0.398  c0.114-0.114,0.256-0.171,0.427-0.142c1.509,0.085,4.469-0.826,8.824-2.733c1.793-0.797,3.273-1.081,4.441-0.825v-1.424h-2.021  c-2.646-0.768-4.184-2.447-4.64-5.066L86.56,106.996L86.56,106.996z"/><path d="M83.599,36.391c-1.508-1.507-3.342-2.275-5.452-2.275c-2.109,0-3.945,0.768-5.453,2.275  c-1.177,1.178-1.917,2.575-2.163,4.164h6.822v7.727h-3.479c1.259,0.85,2.684,1.288,4.273,1.288c2.11,0,3.944-0.768,5.452-2.275  c1.507-1.506,2.273-3.314,2.273-5.423C85.872,39.733,85.105,37.897,83.599,36.391L83.599,36.391z"/><path d="M72.558,44.445c-2.219,0-4.136,0.795-5.727,2.384c-1.616,1.59-2.41,3.508-2.41,5.754c0,2.218,0.794,4.136,2.41,5.726  c1.59,1.589,3.508,2.384,5.727,2.384c2.219,0,4.137-0.794,5.727-2.384c1.615-1.59,2.411-3.508,2.411-5.726  c0-2.247-0.796-4.164-2.411-5.754C76.694,45.24,74.777,44.445,72.558,44.445L72.558,44.445z"/><path d="M71.133,66.666l3.178-4.493l-5.754,4.19c0.411,0.74,1.068,1.124,1.973,1.15l0.546-0.793L71.133,66.666L71.133,66.666z"/><path d="M79.571,67.295v-0.028l1.562-6.302h-4.659l-9.643,13.753v-0.026l-13.287-6.548l-1.37,2.247l14.602,8.958  c0.959,0.576,1.7,0.521,2.247-0.217l0.466-1.069h0.767v4.795c-0.082,0.081-0.137,0.137-0.219,0.217  c-0.576,0.63-1.041,1.344-1.343,2.139c2.439,2.026,4.849,2.685,7.18,1.973c2.328-0.714,4.108-2.768,5.286-6.166  c0.411,0.165,0.877,0.303,1.369,0.438l4.961-7.698l-5.674-11.095l-1.178,4.848c-0.054,0.191-0.109,0.383-0.164,0.577l3.015,5.287  l-3.534,7.041c-1.37-0.85-2.247-2.028-2.632-3.535c-0.026-0.056-0.026-0.11-0.053-0.165L79.571,67.295L79.571,67.295z"/><path d="M66.584,67.787L66.584,67.787l-1.342,0.96v2.466l1.835,1.179l1.836-2.604c-0.575-0.163-1.096-0.465-1.563-0.903  C66.996,68.555,66.75,68.2,66.584,67.787L66.584,67.787z"/><path d="M83.462,83.049l-0.027,0.055l-6.356,8.957c0,0.028,0,0.058-0.029,0.083l9.096,17.067l5.453,20.659h4.109L85.296,91.131  c0.549-1.014,0.823-2.164,0.823-3.452c0-1.644-0.466-3.095-1.398-4.329L83.462,83.049L83.462,83.049z"/><path d="M75.543,94.939c0.247-1.288,0.438-2.221,0.603-2.768l-7.945-3.892c0,0.111,0,0.246,0.028,0.384  c0.027,0.138,0.027,0.303,0.055,0.438h-0.028l1.15,18.741l0.768,22.027h4.083l-0.823-20.739L75.543,94.939L75.543,94.939z"/><text x="26.081" y="146.5" fill="#000000" font-size="5px" font-weight="bold" font-family="'Helvetica Neue', Helvetica, Arial-Unicode, Arial, Sans-serif">Created by N.K.Narasimhan</text><text x="26.081" y="151.5" fill="#000000" font-size="5px" font-weight="bold" font-family="'Helvetica Neue', Helvetica, Arial-Unicode, Arial, Sans-serif">from the Noun Project</text></svg>