<svg xmlns="http://www.w3.org/2000/svg" xmlns:xlink="http://www.w3.org/1999/xlink" version="1.1" x="0px" y="0px" viewBox="0 0 48 60" enable-background="new 0 0 48 48" xml:space="preserve"><g><path fill="#000000" d="M29.3,15.8L29.3,15.8c-1.4,0-2.8-0.8-3.5-2c-0.3-0.4-0.5-1-0.5-1.5v-0.6l6.2-3.5L32,8.8   c0.3,0.3,0.5,0.6,0.7,1c0.6,1,0.7,2.1,0.4,3.1c-0.3,1-1,1.9-2,2.4C30.6,15.6,29.9,15.8,29.3,15.8z M27.5,12.8c0.4,0.6,1,1,1.8,1   l0,0c0.3,0,0.7-0.1,0.9-0.2c0.5-0.3,0.9-0.7,1-1.2c0.1-0.5,0.1-1-0.2-1.5L27.5,12.8z"/><path fill="#000000" d="M25.8,13.7L23.3,9c-0.1,0-0.2,0-0.3,0c0,0,0,0,0,0c-1.8,0-3-0.9-3.3-2.4c-0.2-1.3,0-2.3,0.6-3.1   c0.7-0.8,1.8-1.2,3.2-1.2c0.3,0,0.5,0,0.8,0c0.3-0.7,0.7-1.5,1.3-1.9C26.3,0.2,26.9,0,27.6,0c1.6,0,2.8,1.1,3.3,2.2   c0.7,1.5,0.1,3-0.3,3.8l1.9,4L25.8,13.7z M24.4,6.8l2.2,4.2l3.3-1.8l-1.5-3.2l0.3-0.5c0.3-0.4,0.8-1.6,0.4-2.4   C28.9,2.5,28.3,2,27.6,2c-0.3,0-0.6,0.1-1,0.3C26.5,2.4,26.1,3,26,3.7l-0.2,1l-1-0.3c-0.2-0.1-0.6-0.1-1.2-0.1   c-0.5,0-1.3,0.1-1.7,0.5c-0.2,0.3-0.3,0.8-0.2,1.4C21.7,6.4,21.8,7,23,7h0c0.4,0,0.7-0.1,0.7-0.1L24.4,6.8z"/><path fill="#000000" d="M34.5,48.1h-0.1c-1.6,0-2.8-1.2-3-2.8l-0.5-9.2l1.7-6.3c0-1.2-0.3-3-1.5-5.3l-1.2,1l-6.5,0.3c0,0,0,0,0,0   c-0.9,0-1.7-0.3-2.2-0.9l0,0c-0.3-0.3-0.6-0.8-0.7-1.2c-0.2-0.3-0.2-0.7-0.2-0.8c0-1.7,1.3-3.1,2.9-3.1l4.5-0.2   c0.9-1.2,3.3-4.2,5.9-4.2c2,0,2.7,0.8,2.9,1c4.5,4.9,4.5,12.1,4.4,14.2l0,0.3l-0.1,0.3l-0.7,1.1l-3,5l0.5,7.7   C37.4,46.6,36.2,48,34.5,48.1L34.5,48.1z M32.9,36.3l0.5,8.8c0,0.4,0.3,1,1,1l0.1,1l-0.1-1c0.6-0.1,1-0.5,1-1.1l-0.5-8.2l3.9-6.5   c0.1-2.1-0.1-8.3-4-12.6l0,0c0,0-0.4-0.3-1.4-0.3c-1.8,0-3.9,2.8-4.6,3.7l-0.3,0.4l-5.5,0.2c-0.5,0-0.9,0.5-0.9,1l1,1   c0,0,0.1,0,0.1,0l5.8-0.3l2.5-2l0.6,1c1.9,3.2,2.3,5.8,2.3,7.4l0,0.3L32.9,36.3z"/><path fill="#000000" d="M16.1,22.5c-0.8,0-1.6-0.2-2.2-0.4c-1.3-0.4-2-0.3-2.6,0.4l-1.5-1.3c1.6-1.9,3.9-1.2,4.7-1   c1.3,0.4,2.5,0.7,3.8-1l1.6,1.2C18.6,22,17.3,22.5,16.1,22.5z"/><circle fill="#000000" cx="13" cy="17" r="0.6"/><circle fill="#000000" cx="14" cy="18.8" r="0.4"/><circle fill="#000000" cx="17" cy="18.5" r="0.4"/><circle fill="#000000" cx="17.8" cy="16.5" r="0.5"/><circle fill="#000000" cx="16" cy="15.2" r="0.6"/><circle fill="#000000" cx="13.1" cy="14.2" r="0.6"/><path fill="#000000" d="M27.3,47.4h-5.8v-8.1H13v8.1H7.2V30.7h20.1V47.4z M23.5,45.4h1.8V32.7H9.2v12.7H11v-8.1h12.5V45.4z"/><path fill="#000000" d="M14.8,26.5c-1.9,0-4.1-0.5-6.2-1.9L9.8,23c5.1,3.4,10.8,0,10.8,0l1,1.7C21.4,24.8,18.5,26.5,14.8,26.5z"/></g><text x="0" y="63" fill="#000000" font-size="5px" font-weight="bold" font-family="'Helvetica Neue', Helvetica, Arial-Unicode, Arial, Sans-serif">Created by Creative Stall</text><text x="0" y="68" fill="#000000" font-size="5px" font-weight="bold" font-family="'Helvetica Neue', Helvetica, Arial-Unicode, Arial, Sans-serif">from the Noun Project</text></svg>